<svg xmlns="http://www.w3.org/2000/svg" viewBox="0 0 512 512" width="512" height="512">
  <title>Suiquencer Icon - Pads Only</title>
  <defs>
    <linearGradient id="suiGradient" x1="0%" y1="0%" x2="100%" y2="100%">
      <stop offset="0%" style="stop-color:#4A90E2;stop-opacity:1" />
      <stop offset="100%" style="stop-color:#50E3C2;stop-opacity:1" />
    </linearGradient>
    <filter id="dropShadow" x="-20%" y="-20%" width="140%" height="140%">
      <feGaussianBlur in="SourceAlpha" stdDeviation="10" />
      <feOffset dx="0" dy="5" result="offsetblur" />
      <feComponentTransfer>
        <feFuncA type="linear" slope="0.3" />
      </feComponentTransfer>
      <feMerge>
        <feMergeNode />
        <feMergeNode in="SourceGraphic" />
      </feMerge>
    </filter>
  </defs>

  <g fill="#E0E0E0" stroke="none" transform="translate(64, 64)">
    <rect x="0" y="0" width="80" height="80" rx="12" />
    <rect x="96" y="0" width="80" height="80" rx="12" />
    <rect x="192" y="0" width="80" height="80" rx="12" />
    <rect x="288" y="0" width="80" height="80" rx="12" />
    <rect x="0" y="96" width="80" height="80" rx="12" />
    <rect x="96" y="96" width="80" height="80" rx="12" />
    <rect x="192" y="96" width="80" height="80" rx="12" />
    <rect x="288" y="96" width="80" height="80" rx="12" />
    <rect x="0" y="192" width="80" height="80" rx="12" />
    <rect x="96" y="192" width="80" height="80" rx="12" />
    <rect x="192" y="192" width="80" height="80" rx="12" />
    <rect x="288" y="192" width="80" height="80" rx="12" />
    <rect x="0" y="288" width="80" height="80" rx="12" />
    <rect x="96" y="288" width="80" height="80" rx="12" />
    <rect x="192" y="288" width="80" height="80" rx="12" />
    <rect x="288" y="288" width="80" height="80" rx="12" />
  </g>

  <g fill="url(#suiGradient)" stroke="none" transform="translate(64, 64)" filter="url(#dropShadow)">
    <rect x="0" y="96" width="80" height="80" rx="12" />
    <rect x="96" y="192" width="80" height="80" rx="12" />
    <rect x="192" y="96" width="80" height="80" rx="12" />
    <rect x="288" y="192" width="80" height="80" rx="12" />
  </g>

  <path d="M 380 215 L 380 250 A 8 8 0 1 1 372 250 L 372 220 L 395 215" fill="white" transform="translate(64, 64)"/>

</svg>
